<svg width="48" height="48" viewBox="0 0 48 48" fill="none" xmlns="http://www.w3.org/2000/svg">
  <rect width="48" height="48" rx="8" fill="url(#paint0_linear)" />
  <path d="M24 12C17.373 12 12 17.373 12 24C12 30.627 17.373 36 24 36C30.627 36 36 30.627 36 24C36 17.373 30.627 12 24 12ZM24 16C26.064 16 27.941 16.765 29.389 18.023L18.023 29.389C16.765 27.941 16 26.064 16 24C16 19.582 19.582 16 24 16ZM24 32C21.936 32 20.059 31.235 18.611 29.977L29.977 18.611C31.235 20.059 32 21.936 32 24C32 28.418 28.418 32 24 32Z" fill="white" />
  <defs>
    <linearGradient id="paint0_linear" x1="0" y1="0" x2="48" y2="48" gradientUnits="userSpaceOnUse">
      <stop stop-color="#3B82F6" />
      <stop offset="1" stop-color="#14B8A6" />
    </linearGradient>
  </defs>
</svg>